<?xml version="1.0" standalone="no"?>
<!DOCTYPE svg PUBLIC "-//W3C//DTD SVG 20010904//EN"
 "http://www.w3.org/TR/2001/REC-SVG-20010904/DTD/svg10.dtd">
<svg version="1.0" xmlns="http://www.w3.org/2000/svg"
 width="347.000000pt" height="231.000000pt" viewBox="0 0 347.000000 231.000000"
 preserveAspectRatio="xMidYMid meet">

<g transform="translate(0.000000,231.000000) scale(0.100000,-0.100000)"
fill="#000000" stroke="none">
<path d="M38 713 c7 -3 16 -2 19 1 4 3 -2 6 -13 5 -11 0 -14 -3 -6 -6z"/>
<path d="M78 633 c7 -3 16 -2 19 1 4 3 -2 6 -13 5 -11 0 -14 -3 -6 -6z"/>
<path d="M0 310 l0 -310 194 0 c122 0 197 4 201 10 4 6 2 9 -3 8 -6 -2 -10 1
-10 5 -1 5 -10 17 -22 27 -15 13 -17 19 -8 23 8 3 6 6 -5 6 -10 1 -15 6 -12
11 3 6 -2 10 -11 10 -10 0 -14 3 -11 6 4 4 -2 15 -14 25 -14 12 -16 18 -7 22
8 3 5 6 -6 6 -11 1 -16 4 -13 7 4 4 -2 15 -14 25 -14 12 -16 18 -7 22 8 3 5 6
-6 6 -11 1 -17 4 -13 7 3 4 -1 13 -9 21 -8 8 -12 19 -9 24 4 5 -1 9 -10 9 -9
0 -13 5 -10 10 3 6 0 10 -7 10 -9 0 -9 3 2 10 13 8 12 10 -3 10 -10 0 -15 4
-12 10 3 6 0 10 -7 10 -9 0 -9 3 2 10 12 8 11 10 -7 10 -20 0 -24 4 -23 25 1
3 -6 13 -15 21 -8 9 -13 19 -10 24 3 5 1 10 -4 12 -5 1 -11 10 -13 18 -2 8
-11 22 -21 32 -13 12 -15 17 -5 21 8 3 6 6 -5 6 -10 1 -15 6 -12 11 3 6 0 10
-7 10 -9 0 -9 3 2 10 13 8 12 10 -3 10 -10 0 -15 5 -12 10 3 6 0 10 -7 10 -9
0 -9 3 2 10 13 8 12 10 -3 10 -10 0 -15 5 -12 10 3 6 1 10 -4 10 -8 0 -11 -98
-11 -310z"/>
<path d="M118 553 c7 -3 16 -2 19 1 4 3 -2 6 -13 5 -11 0 -14 -3 -6 -6z"/>
<path d="M258 313 c7 -3 16 -2 19 1 4 3 -2 6 -13 5 -11 0 -14 -3 -6 -6z"/>
</g>
</svg>
